ffmpeg version 4.3.1 Copyright (c) 2000-2020 the FFmpeg developers
  built with gcc 10.2.1 (GCC) 20200726
  configuration: --enable-gpl --enable-version3 --enable-sdl2 --enable-fontconfig --enable-gnutls --enable-iconv --enable-libass --enable-libdav1d --enable-libbluray --enable-libfreetype --enable-libmp3lame --enable-libopencore-amrnb --enable-libopencore-amrwb --enable-libopenjpeg --enable-libopus --enable-libshine --enable-libsnappy --enable-libsoxr --enable-libsrt --enable-libtheora --enable-libtwolame --enable-libvpx --enable-libwavpack --enable-libwebp --enable-libx264 --enable-libx265 --enable-libxml2 --enable-libzimg --enable-lzma --enable-zlib --enable-gmp --enable-libvidstab --enable-libvmaf --enable-libvorbis --enable-libvo-amrwbenc --enable-libmysofa --enable-libspeex --enable-libxvid --enable-libaom --enable-libgsm --disable-w32threads --enable-libmfx --enable-ffnvcodec --enable-cuda-llvm --enable-cuvid --enable-d3d11va --enable-nvenc --enable-nvdec --enable-dxva2 --enable-avisynth --enable-libopenmpt --enable-amf
  libavutil      56. 51.100 / 56. 51.100
  libavcodec     58. 91.100 / 58. 91.100
  libavformat    58. 45.100 / 58. 45.100
  libavdevice    58. 10.100 / 58. 10.100
  libavfilter     7. 85.100 /  7. 85.100
  libswscale      5.  7.100 /  5.  7.100
  libswresample   3.  7.100 /  3.  7.100
  libpostproc    55.  7.100 / 55.  7.100
Input #0, mov,mp4,m4a,3gp,3g2,mj2, from 'C:\xampp\htdocs\videoapi\public\video/original.mp4':
  Metadata:
    major_brand     : isom
    minor_version   : 512
    compatible_brands: isomiso2avc1mp41
    encoder         : Lavf57.83.100
  Duration: 00:00:08.51, start: 0.000000, bitrate: 930 kb/s
    Stream #0:0(eng): Video: h264 (Main) (avc1 / 0x31637661), yuv420p, 1920x1080, 928 kb/s, SAR 1:1 DAR 16:9, 17.50 fps, 30 tbr, 16k tbn, 60 tbc (default)
    Metadata:
      handler_name    : VideoHandler
Stream mapping:
  Stream #0:0 -> #0:0 (h264 (native) -> h264 (libx264))
Press [q] to stop, [?] for help
[swscaler @ 000001dc4a0fb040] Warning: data is not aligned! This can lead to a speed loss
[libx264 @ 000001dc48dfdb00] using SAR=117/112
[libx264 @ 000001dc48dfdb00] using cpu capabilities: MMX2 SSE2Fast SSSE3 SSE4.2 AVX FMA3 BMI2 AVX2
[libx264 @ 000001dc48dfdb00] profile High, level 3.1, 4:2:0, 8-bit
[libx264 @ 000001dc48dfdb00] 264 - core 161 - H.264/MPEG-4 AVC codec - Copyleft 2003-2020 - http://www.videolan.org/x264.html - options: cabac=1 ref=3 deblock=1:0:0 analyse=0x3:0x113 me=hex subme=7 psy=1 psy_rd=1.00:0.00 mixed_ref=1 me_range=16 chroma_me=1 trellis=1 8x8dct=1 cqm=0 deadzone=21,11 fast_pskip=1 chroma_qp_offset=-2 threads=6 lookahead_threads=1 sliced_threads=0 nr=0 decimate=1 interlaced=0 bluray_compat=0 constrained_intra=0 bframes=3 b_pyramid=2 b_adapt=1 b_bias=0 direct=1 weightb=1 open_gop=0 weightp=2 keyint=250 keyint_min=25 scenecut=40 intra_refresh=0 rc_lookahead=40 rc=crf mbtree=1 crf=23.0 qcomp=0.60 qpmin=0 qpmax=69 qpstep=4 ip_ratio=1.40 aq=1:1.00
Output #0, mp4, to 'C:\xampp\htdocs\videoapi\public\pre/1639537929.mp4':
  Metadata:
    major_brand     : isom
    minor_version   : 512
    compatible_brands: isomiso2avc1mp41
    encoder         : Lavf58.45.100
    Stream #0:0(eng): Video: h264 (libx264) (avc1 / 0x31637661), yuv420p, 1280x720 [SAR 117:112 DAR 13:7], q=-1--1, 30 fps, 15360 tbn, 30 tbc (default)
    Metadata:
      handler_name    : VideoHandler
      encoder         : Lavc58.91.100 libx264
    Side data:
      cpb: bitrate max/min/avg: 0/0/0 buffer size: 0 vbv_delay: N/A
frame=    0 fps=0.0 q=0.0 size=       0kB time=00:00:00.00 bitrate=N/A speed=   0x    frame=    0 fps=0.0 q=0.0 size=       0kB time=00:00:00.00 bitrate=N/A speed=   0x    frame=   12 fps=6.9 q=0.0 size=       0kB time=00:00:00.00 bitrate=N/A dup=3 drop=0 speed=   0x    frame=   23 fps= 10 q=0.0 size=       0kB time=00:00:00.00 bitrate=N/A dup=6 drop=0 speed=   0x    frame=   48 fps= 15 q=0.0 size=       0kB time=00:00:00.00 bitrate=N/A dup=13 drop=0 speed=   0x    frame=   52 fps= 11 q=29.0 size=       0kB time=-00:00:00.03 bitrate=N/A dup=14 drop=0 speed=N/A    frame=   67 fps= 13 q=29.0 size=       0kB time=00:00:00.46 bitrate=   0.8kbits/s dup=18 drop=0 speed=0.0912x    frame=   83 fps= 15 q=29.0 size=       0kB time=00:00:01.00 bitrate=   0.4kbits/s dup=22 drop=0 speed=0.176x    frame=  114 fps= 17 q=29.0 size=       0kB time=00:00:02.03 bitrate=   0.2kbits/s dup=46 drop=0 speed=0.304x    frame=  144 fps= 19 q=29.0 size=       0kB time=00:00:03.03 bitrate=   0.1kbits/s dup=69 drop=0 speed=0.402x    frame=  150 fps= 17 q=-1.0 Lsize=      48kB time=00:00:04.90 bitrate=  80.9kbits/s dup=70 drop=0 speed=0.564x    
video:46kB audio:0kB subtitle:0kB other streams:0kB global headers:0kB muxing overhead: 5.582416%
[libx264 @ 000001dc48dfdb00] frame I:1     Avg QP:12.74  size: 16692
[libx264 @ 000001dc48dfdb00] frame P:41    Avg QP:16.23  size:   433
[libx264 @ 000001dc48dfdb00] frame B:108   Avg QP:16.59  size:   110
[libx264 @ 000001dc48dfdb00] consecutive B-frames:  3.3%  0.0%  6.0% 90.7%
[libx264 @ 000001dc48dfdb00] mb I  I16..4: 59.9% 31.2%  8.9%
[libx264 @ 000001dc48dfdb00] mb P  I16..4:  0.1%  0.1%  0.1%  P16..4:  0.8%  0.3%  0.1%  0.0%  0.0%    skip:98.5%
[libx264 @ 000001dc48dfdb00] mb B  I16..4:  0.0%  0.0%  0.0%  B16..8:  0.6%  0.1%  0.0%  direct: 0.0%  skip:99.3%  L0:49.1% L1:47.1% BI: 3.8%
[libx264 @ 000001dc48dfdb00] 8x8 transform intra:31.1% inter:40.0%
[libx264 @ 000001dc48dfdb00] coded y,uvDC,uvAC intra: 8.5% 9.3% 8.6% inter: 0.1% 0.1% 0.0%
[libx264 @ 000001dc48dfdb00] i16 v,h,dc,p: 79% 17%  4%  0%
[libx264 @ 000001dc48dfdb00] i8 v,h,dc,ddl,ddr,vr,hd,vl,hu:  6% 73% 20%  0%  0%  0%  0%  0%  0%
[libx264 @ 000001dc48dfdb00] i4 v,h,dc,ddl,ddr,vr,hd,vl,hu: 35% 20% 21%  5%  5%  4%  5%  4%  3%
[libx264 @ 000001dc48dfdb00] i8c dc,h,v,p: 86%  8%  5%  1%
[libx264 @ 000001dc48dfdb00] Weighted P-Frames: Y:0.0% UV:0.0%
[libx264 @ 000001dc48dfdb00] ref P L0: 61.6%  4.0% 16.4% 18.1%
[libx264 @ 000001dc48dfdb00] ref B L0: 73.3% 22.9%  3.8%
[libx264 @ 000001dc48dfdb00] ref B L1: 95.1%  4.9%
[libx264 @ 000001dc48dfdb00] kb/s:74.04
